<?xml version="1.0" encoding="UTF-8" standalone="no"?>
<!-- Created with Inkscape (http://www.inkscape.org/) -->

<svg
   width="33.866665mm"
   height="33.866665mm"
   viewBox="0 0 33.866665 33.866665"
   version="1.1"
   id="svg8"
   inkscape:version="1.3.2 (1:1.3.2+202311252150+091e20ef0f)"
   sodipodi:docname="favicon.svg"
   inkscape:export-filename="favicon.png"
   inkscape:export-xdpi="96"
   inkscape:export-ydpi="96"
   xmlns:inkscape="http://www.inkscape.org/namespaces/inkscape"
   xmlns:sodipodi="http://sodipodi.sourceforge.net/DTD/sodipodi-0.dtd"
   xmlns:xlink="http://www.w3.org/1999/xlink"
   xmlns="http://www.w3.org/2000/svg"
   xmlns:svg="http://www.w3.org/2000/svg"
   xmlns:rdf="http://www.w3.org/1999/02/22-rdf-syntax-ns#"
   xmlns:cc="http://creativecommons.org/ns#"
   xmlns:dc="http://purl.org/dc/elements/1.1/">
  <defs
     id="defs2">
    <radialGradient
       inkscape:collect="always"
       xlink:href="#linearGradient15"
       id="radialGradient16"
       cx="-97.932137"
       cy="143.48462"
       fx="-97.932137"
       fy="143.48462"
       r="132.29167"
       gradientUnits="userSpaceOnUse"
       gradientTransform="matrix(0,0.15121998,-0.1904494,4.271553e-8,-196.96318,96.984667)" />
    <linearGradient
       id="linearGradient15"
       inkscape:collect="always">
      <stop
         style="stop-color:#e6008b;stop-opacity:1;"
         offset="0"
         id="stop15" />
      <stop
         style="stop-color:#a400e6;stop-opacity:1;"
         offset="1"
         id="stop16" />
    </linearGradient>
  </defs>
  <sodipodi:namedview
     id="base"
     pagecolor="#d2d2d2"
     bordercolor="#666666"
     borderopacity="1.0"
     inkscape:pageopacity="0"
     inkscape:pageshadow="2"
     inkscape:zoom="0.39375"
     inkscape:cx="-81.051971"
     inkscape:cy="558.86667"
     inkscape:document-units="mm"
     inkscape:current-layer="layer1"
     showgrid="false"
     inkscape:window-width="1366"
     inkscape:window-height="741"
     inkscape:window-x="0"
     inkscape:window-y="0"
     inkscape:window-maximized="1"
     inkscape:showpageshadow="2"
     inkscape:pagecheckerboard="0"
     inkscape:deskcolor="#d1d1d1"
     showguides="true" />
  <metadata
     id="metadata5">
    <rdf:RDF>
      <cc:Work
         rdf:about="">
        <dc:format>image/svg+xml</dc:format>
        <dc:type
           rdf:resource="http://purl.org/dc/dcmitype/StillImage" />
        <dc:title />
      </cc:Work>
    </rdf:RDF>
  </metadata>
  <g
     inkscape:label="Capa 1"
     inkscape:groupmode="layer"
     id="layer1"
     transform="translate(241.20451,-65.525826)">
    <rect
       style="fill:url(#radialGradient16);fill-opacity:1;stroke-width:4.53417;-inkscape-stroke:none;paint-order:fill markers stroke"
       id="rect8-2"
       width="33.866665"
       height="33.866665"
       x="-241.20451"
       y="65.525826" />
    <text
       xml:space="preserve"
       style="font-size:38.9302px;line-height:160%;font-family:Archivo;-inkscape-font-specification:Archivo;font-variation-settings:normal;text-align:center;text-decoration:none;text-decoration-line:none;text-decoration-color:#000000;letter-spacing:4.32557px;word-spacing:0px;text-anchor:middle;white-space:pre;opacity:1;vector-effect:none;fill:#17ff29;fill-opacity:1;stroke-width:4.1007;stroke-linecap:butt;stroke-linejoin:miter;stroke-miterlimit:4;stroke-dasharray:none;stroke-dashoffset:0;stroke-opacity:1;-inkscape-stroke:none;paint-order:fill markers stroke;stop-color:#000000;stop-opacity:1"
       x="-224.62555"
       y="96.249374"
       id="text8"><tspan
         sodipodi:role="line"
         id="tspan8"
         style="font-style:normal;font-variant:normal;font-weight:bold;font-stretch:normal;font-family:'Fira Code';-inkscape-font-specification:'Fira Code Bold';font-variation-settings:normal;vector-effect:none;fill:#17ff29;fill-opacity:1;stroke-width:4.1007;stroke-linecap:butt;stroke-linejoin:miter;stroke-miterlimit:4;stroke-dasharray:none;stroke-dashoffset:0;stroke-opacity:1;-inkscape-stroke:none;paint-order:fill markers stroke;stop-color:#000000;stop-opacity:1"
         x="-222.46277"
         y="96.249374">G</tspan></text>
    <path
       id="path9"
       style="font-weight:600;font-size:14.775px;line-height:160%;font-family:'Fira Code';-inkscape-font-specification:'Fira Code Semi-Bold';text-align:center;letter-spacing:-1.5875px;word-spacing:0px;text-anchor:middle;white-space:pre;fill:#f8ff0b;fill-opacity:1;stroke-width:1.77536;paint-order:fill markers stroke"
       d="m -213.80722,78.744112 c -0.7337,0 -1.36016,0.16589 -1.87889,0.497691 -0.51873,0.327127 -0.91366,0.784724 -1.18471,1.373553 -0.27104,0.588829 -0.40638,1.271424 -0.40638,2.047183 0,0.813145 0.13534,1.513812 0.40638,2.102641 0.27105,0.584155 0.66348,1.035214 1.17754,1.352995 0.51873,0.313107 1.1452,0.469963 1.87889,0.469963 0.73838,0 1.36436,-0.161373 1.87842,-0.483828 0.51405,-0.322453 0.90696,-0.77803 1.17801,-1.36686 0.27105,-0.588828 0.40638,-1.285456 0.40638,-2.089254 0,-0.785105 -0.13533,-1.46972 -0.40638,-2.053875 -0.26637,-0.588829 -0.65678,-1.044406 -1.17084,-1.366861 -0.51406,-0.322454 -1.14005,-0.483348 -1.87842,-0.483348 z" />
    <path
       style="font-weight:600;font-size:14.775px;line-height:160%;font-family:'Fira Code';-inkscape-font-specification:'Fira Code Semi-Bold';text-align:center;letter-spacing:-1.5875px;word-spacing:0px;text-anchor:middle;white-space:pre;fill:#f8ff0b;fill-opacity:1;stroke-width:1.77536;paint-order:fill markers stroke"
       d="m -220.76457,75.210954 q 0.51171,0 0.82717,0.315445 0.32244,0.315444 0.32244,0.785105 0,0.469662 -0.32244,0.792116 -0.31546,0.315445 -0.82717,0.315445 -0.51173,0 -0.83418,-0.315445 -0.32245,-0.322454 -0.32245,-0.792116 0,-0.469661 0.32245,-0.785105 0.32245,-0.315445 0.83418,-0.315445 z"
       id="path10" />
    <path
       style="font-weight:600;font-size:14.775px;line-height:160%;font-family:'Fira Code';-inkscape-font-specification:'Fira Code Semi-Bold';text-align:center;letter-spacing:-1.5875px;word-spacing:0px;text-anchor:middle;white-space:pre;fill:#f8ff0b;fill-opacity:1;stroke-width:1.77536;paint-order:fill markers stroke"
       d="m -219.56589,78.954227 v 6.11261 h 1.95576 v 1.310846 h -5.97942 v -1.310846 h 2.17305 v -4.801763 h -2.10295 v -1.310847 z"
       id="path11" />
    <path
       style="font-weight:600;font-size:14.775px;line-height:160%;font-family:'Fira Code';-inkscape-font-specification:'Fira Code Semi-Bold';text-align:center;letter-spacing:-1.5875px;word-spacing:0px;text-anchor:middle;white-space:pre;fill:#f8ff0b;fill-opacity:1;stroke-width:1.77536;paint-order:fill markers stroke"
       d="m -228.92742,78.954227 v 5.145247 q 0,0.60285 0.23833,0.848195 0.23834,0.245345 0.69398,0.245345 0.43461,0 0.84819,-0.259365 0.41358,-0.266375 0.67295,-0.672947 v -5.306475 h 1.85061 v 7.423456 h -1.61227 l -0.0981,-0.911284 q -0.39957,0.54677 -1.02344,0.834175 -0.62389,0.287405 -1.28982,0.287405 -1.07251,0 -1.60526,-0.602848 -0.52574,-0.60986 -0.52574,-1.661341 v -5.369563 z"
       id="path12" />
    <path
       style="font-weight:600;font-size:14.775px;line-height:160%;font-family:'Fira Code';-inkscape-font-specification:'Fira Code Semi-Bold';text-align:center;letter-spacing:-1.5875px;word-spacing:0px;text-anchor:middle;white-space:pre;fill:#f8ff0b;fill-opacity:1;stroke-width:1.77536;paint-order:fill markers stroke"
       d="m -235.12051,85.249094 q 0.4206,0 0.8482,-0.238337 0.43461,-0.238335 0.67995,-0.665937 v -1.444034 h -0.72902 q -1.03046,0 -1.4931,0.329464 -0.45564,0.329464 -0.45564,0.932313 0,0.518731 0.29441,0.806136 0.29442,0.280395 0.8552,0.280395 z"
       id="path13" />
    <path
       style="font-weight:600;font-size:14.775px;line-height:160%;font-family:'Fira Code';-inkscape-font-specification:'Fira Code Semi-Bold';text-align:center;letter-spacing:-1.5875px;word-spacing:0px;text-anchor:middle;white-space:pre;fill:#f8ff0b;fill-opacity:1;stroke-width:1.77536;paint-order:fill markers stroke"
       d="m -231.79783,84.421929 q 0,0.427602 0.12618,0.623878 0.12618,0.189267 0.40657,0.287405 l -0.39955,1.240748 q -0.59584,-0.06309 -1.01644,-0.294415 -0.41359,-0.238336 -0.6379,-0.707997 -0.42059,0.511721 -1.0655,0.764076 -0.6379,0.252355 -1.33888,0.252355 -1.1356,0 -1.80154,-0.644908 -0.66594,-0.644909 -0.66594,-1.675359 0,-1.184669 0.9253,-1.822568 0.93232,-0.644908 2.63572,-0.644908 h 1.03745 v -0.399563 q 0,-0.658929 -0.40657,-0.953343 -0.40657,-0.301425 -1.17065,-0.301425 -0.3575,0 -0.89726,0.09814 -0.53275,0.09113 -1.10055,0.287405 l -0.44162,-1.268787 q 0.70799,-0.266375 1.423,-0.392554 0.72202,-0.126178 1.31085,-0.126178 1.5632,0 2.32027,0.665939 0.75706,0.658928 0.75706,1.871636 z"
       id="path14" />
  </g>
</svg>
