<?xml version="1.0" encoding="UTF-8" standalone="no"?>
<!-- Created with Inkscape (http://www.inkscape.org/) -->

<svg
   width="33.866665mm"
   height="33.866665mm"
   viewBox="0 0 33.866665 33.866665"
   version="1.1"
   id="svg8"
   inkscape:version="1.3.2 (1:1.3.2+202311252150+091e20ef0f)"
   sodipodi:docname="favicon.svg"
   inkscape:export-filename="favicon.png"
   inkscape:export-xdpi="96"
   inkscape:export-ydpi="96"
   xmlns:inkscape="http://www.inkscape.org/namespaces/inkscape"
   xmlns:sodipodi="http://sodipodi.sourceforge.net/DTD/sodipodi-0.dtd"
   xmlns="http://www.w3.org/2000/svg"
   xmlns:svg="http://www.w3.org/2000/svg"
   xmlns:rdf="http://www.w3.org/1999/02/22-rdf-syntax-ns#"
   xmlns:cc="http://creativecommons.org/ns#"
   xmlns:dc="http://purl.org/dc/elements/1.1/">
  <defs
     id="defs2" />
  <sodipodi:namedview
     id="base"
     pagecolor="#d2d2d2"
     bordercolor="#666666"
     borderopacity="1.0"
     inkscape:pageopacity="0"
     inkscape:pageshadow="2"
     inkscape:zoom="0.39375"
     inkscape:cx="-81.051971"
     inkscape:cy="558.86667"
     inkscape:document-units="mm"
     inkscape:current-layer="layer1"
     showgrid="false"
     inkscape:window-width="1366"
     inkscape:window-height="741"
     inkscape:window-x="0"
     inkscape:window-y="0"
     inkscape:window-maximized="1"
     inkscape:showpageshadow="2"
     inkscape:pagecheckerboard="0"
     inkscape:deskcolor="#d1d1d1"
     showguides="true" />
  <metadata
     id="metadata5">
    <rdf:RDF>
      <cc:Work
         rdf:about="">
        <dc:format>image/svg+xml</dc:format>
        <dc:type
           rdf:resource="http://purl.org/dc/dcmitype/StillImage" />
        <dc:title />
      </cc:Work>
    </rdf:RDF>
  </metadata>
  <g
     inkscape:label="Capa 1"
     inkscape:groupmode="layer"
     id="layer1"
     transform="translate(241.20451,-65.525826)">
    <rect
       style="fill:#e6008b;fill-opacity:1;stroke-width:4.53418;-inkscape-stroke:none;paint-order:fill markers stroke"
       id="rect1"
       width="33.866665"
       height="33.866665"
       x="-241.20451"
       y="26.771725" />
    <text
       xml:space="preserve"
       style="font-size:42.0794px;line-height:160%;font-family:Archivo;-inkscape-font-specification:Archivo;text-align:center;text-decoration:none;text-decoration-line:none;text-decoration-color:#000000;letter-spacing:4.67548px;word-spacing:0px;text-anchor:middle;white-space:pre;fill:#008d0b;fill-opacity:1;stroke-width:5.46528;-inkscape-stroke:none;paint-order:fill markers stroke"
       x="-224.65422"
       y="58.61525"
       id="text2"><tspan
         sodipodi:role="line"
         id="tspan2"
         style="font-style:normal;font-variant:normal;font-weight:bold;font-stretch:normal;font-family:'Fira Code';-inkscape-font-specification:'Fira Code Bold';fill:#008d0b;fill-opacity:1;stroke-width:5.46528"
         x="-222.31648"
         y="58.61525">G</tspan></text>
    <path
       id="path8"
       style="font-weight:600;font-size:14.775px;line-height:160%;font-family:'Fira Code';-inkscape-font-specification:'Fira Code Semi-Bold';text-align:center;letter-spacing:-1.5875px;word-spacing:0px;text-anchor:middle;white-space:pre;fill:#007588;fill-opacity:1;stroke-width:1.91897;paint-order:fill markers stroke"
       d="m -212.96076,39.693934 c -0.79305,0 -1.47019,0.17931 -2.03088,0.537951 -0.56069,0.353589 -0.98756,0.848203 -1.28054,1.484664 -0.29297,0.636461 -0.43925,1.374273 -0.43925,2.212785 0,0.878923 0.14628,1.636269 0.43925,2.27273 0.29298,0.631409 0.71715,1.118956 1.27279,1.462443 0.56069,0.338435 1.23784,0.507979 2.03088,0.507979 0.79811,0 1.47473,-0.174427 2.03037,-0.522966 0.55564,-0.348537 0.98033,-0.840967 1.27331,-1.477429 0.29297,-0.63646 0.43925,-1.38944 0.43925,-2.25826 0,-0.848614 -0.14628,-1.58861 -0.43925,-2.220019 -0.28792,-0.636461 -0.70991,-1.128891 -1.26556,-1.47743 -0.55564,-0.348538 -1.23227,-0.522448 -2.03037,-0.522448 z" />
    <path
       style="font-weight:600;font-size:14.775px;line-height:160%;font-family:'Fira Code';-inkscape-font-specification:'Fira Code Semi-Bold';text-align:center;letter-spacing:-1.5875px;word-spacing:0px;text-anchor:middle;white-space:pre;fill:#007588;fill-opacity:1;stroke-width:1.91897;paint-order:fill markers stroke"
       d="m -220.48091,35.874969 q 0.55311,0 0.89408,0.340962 0.34853,0.340961 0.34853,0.848615 0,0.507654 -0.34853,0.856192 -0.34097,0.340962 -0.89408,0.340962 -0.55312,0 -0.90166,-0.340962 -0.34853,-0.348538 -0.34853,-0.856192 0,-0.507654 0.34853,-0.848615 0.34854,-0.340962 0.90166,-0.340962 z"
       id="path5" />
    <path
       style="font-weight:600;font-size:14.775px;line-height:160%;font-family:'Fira Code';-inkscape-font-specification:'Fira Code Semi-Bold';text-align:center;letter-spacing:-1.5875px;word-spacing:0px;text-anchor:middle;white-space:pre;fill:#007588;fill-opacity:1;stroke-width:1.91897;paint-order:fill markers stroke"
       d="m -219.18526,39.921046 v 6.607077 h 2.11396 v 1.416884 h -6.46311 v -1.416884 h 2.34884 v -5.190192 h -2.27307 v -1.416885 z"
       id="path4" />
    <path
       style="font-weight:600;font-size:14.775px;line-height:160%;font-family:'Fira Code';-inkscape-font-specification:'Fira Code Semi-Bold';text-align:center;letter-spacing:-1.5875px;word-spacing:0px;text-anchor:middle;white-space:pre;fill:#007588;fill-opacity:1;stroke-width:1.91897;paint-order:fill markers stroke"
       d="m -229.30408,39.921046 v 5.561461 q 0,0.651616 0.25761,0.916808 0.25762,0.265192 0.75012,0.265192 0.46977,0 0.91681,-0.280346 0.44703,-0.287923 0.72738,-0.727384 v -5.735731 h 2.00031 v 8.023961 h -1.74269 l -0.10608,-0.985 q -0.43189,0.591 -1.10623,0.901654 -0.67435,0.310654 -1.39415,0.310654 -1.15927,0 -1.73512,-0.651615 -0.56827,-0.659193 -0.56827,-1.795731 v -5.803923 z"
       id="path3" />
    <path
       style="font-weight:600;font-size:14.775px;line-height:160%;font-family:'Fira Code';-inkscape-font-specification:'Fira Code Semi-Bold';text-align:center;letter-spacing:-1.5875px;word-spacing:0px;text-anchor:middle;white-space:pre;fill:#007588;fill-opacity:1;stroke-width:1.91897;paint-order:fill markers stroke"
       d="m -235.99814,46.725123 q 0.45462,0 0.91681,-0.257616 0.46977,-0.257615 0.73496,-0.719807 v -1.560846 h -0.788 q -1.11381,0 -1.61388,0.356115 -0.4925,0.356115 -0.4925,1.007731 0,0.560692 0.31823,0.871346 0.31823,0.303077 0.92438,0.303077 z"
       id="path7" />
    <path
       style="font-weight:600;font-size:14.775px;line-height:160%;font-family:'Fira Code';-inkscape-font-specification:'Fira Code Semi-Bold';text-align:center;letter-spacing:-1.5875px;word-spacing:0px;text-anchor:middle;white-space:pre;fill:#007588;fill-opacity:1;stroke-width:1.91897;paint-order:fill markers stroke"
       d="m -232.40668,45.831046 q 0,0.462192 0.13639,0.674346 0.13638,0.204577 0.43946,0.310654 l -0.43188,1.341115 q -0.64404,-0.06819 -1.09866,-0.318231 -0.44704,-0.257615 -0.6895,-0.765269 -0.45461,0.553116 -1.15169,0.825885 -0.6895,0.272769 -1.44719,0.272769 -1.22746,0 -1.94727,-0.697077 -0.71981,-0.697077 -0.71981,-1.810884 0,-1.2805 1.00015,-1.97 1.00774,-0.697077 2.84893,-0.697077 h 1.12138 v -0.431885 q 0,-0.712231 -0.43946,-1.030461 -0.43946,-0.325808 -1.26535,-0.325808 -0.38642,0 -0.96984,0.106077 -0.57585,0.0985 -1.18958,0.310654 l -0.47734,-1.371423 q 0.76526,-0.287923 1.53811,-0.424308 0.78042,-0.136385 1.41689,-0.136385 1.68965,0 2.50796,0.719808 0.8183,0.712231 0.8183,2.023038 z"
       id="text3" />
    <rect
       style="fill:#e6008b;fill-opacity:1;stroke-width:4.53418;-inkscape-stroke:none;paint-order:fill markers stroke"
       id="rect8"
       width="33.866665"
       height="33.866665"
       x="-241.20451"
       y="65.525826" />
    <text
       xml:space="preserve"
       style="font-size:42.0794px;line-height:160%;font-family:Archivo;-inkscape-font-specification:Archivo;text-align:center;text-decoration:none;text-decoration-line:none;text-decoration-color:#000000;letter-spacing:4.67548px;word-spacing:0px;text-anchor:middle;white-space:pre;fill:#008d0b;fill-opacity:1;stroke-width:5.46528;-inkscape-stroke:none;paint-order:fill markers stroke"
       x="-224.65422"
       y="97.369354"
       id="text8"><tspan
         sodipodi:role="line"
         id="tspan8"
         style="font-style:normal;font-variant:normal;font-weight:bold;font-stretch:normal;font-family:'Fira Code';-inkscape-font-specification:'Fira Code Bold';fill:#008d0b;fill-opacity:1;stroke-width:5.46528"
         x="-222.31648"
         y="97.369354">G</tspan></text>
    <path
       id="path9"
       style="font-weight:600;font-size:14.775px;line-height:160%;font-family:'Fira Code';-inkscape-font-specification:'Fira Code Semi-Bold';text-align:center;letter-spacing:-1.5875px;word-spacing:0px;text-anchor:middle;white-space:pre;fill:#f8ff0b;fill-opacity:1;stroke-width:1.91897;paint-order:fill markers stroke"
       d="m -212.96076,78.448037 c -0.79305,0 -1.47019,0.17931 -2.03088,0.537951 -0.56069,0.353589 -0.98756,0.848203 -1.28054,1.484664 -0.29297,0.636461 -0.43925,1.374273 -0.43925,2.212785 0,0.878923 0.14628,1.636269 0.43925,2.27273 0.29298,0.631409 0.71715,1.118956 1.27279,1.462443 0.56069,0.338435 1.23784,0.507979 2.03088,0.507979 0.79811,0 1.47473,-0.174427 2.03037,-0.522966 0.55564,-0.348537 0.98033,-0.840967 1.27331,-1.477429 0.29297,-0.63646 0.43925,-1.38944 0.43925,-2.25826 0,-0.848614 -0.14628,-1.58861 -0.43925,-2.220019 -0.28792,-0.636461 -0.70991,-1.128891 -1.26556,-1.47743 -0.55564,-0.348538 -1.23227,-0.522448 -2.03037,-0.522448 z" />
    <path
       style="font-weight:600;font-size:14.775px;line-height:160%;font-family:'Fira Code';-inkscape-font-specification:'Fira Code Semi-Bold';text-align:center;letter-spacing:-1.5875px;word-spacing:0px;text-anchor:middle;white-space:pre;fill:#f8ff0b;fill-opacity:1;stroke-width:1.91897;paint-order:fill markers stroke"
       d="m -220.48091,74.629072 q 0.55311,0 0.89408,0.340962 0.34853,0.340961 0.34853,0.848615 0,0.507654 -0.34853,0.856192 -0.34097,0.340962 -0.89408,0.340962 -0.55312,0 -0.90166,-0.340962 -0.34853,-0.348538 -0.34853,-0.856192 0,-0.507654 0.34853,-0.848615 0.34854,-0.340962 0.90166,-0.340962 z"
       id="path10" />
    <path
       style="font-weight:600;font-size:14.775px;line-height:160%;font-family:'Fira Code';-inkscape-font-specification:'Fira Code Semi-Bold';text-align:center;letter-spacing:-1.5875px;word-spacing:0px;text-anchor:middle;white-space:pre;fill:#f8ff0b;fill-opacity:1;stroke-width:1.91897;paint-order:fill markers stroke"
       d="m -219.18526,78.675149 v 6.607077 h 2.11396 v 1.416884 h -6.46311 v -1.416884 h 2.34884 v -5.190192 h -2.27307 v -1.416885 z"
       id="path11" />
    <path
       style="font-weight:600;font-size:14.775px;line-height:160%;font-family:'Fira Code';-inkscape-font-specification:'Fira Code Semi-Bold';text-align:center;letter-spacing:-1.5875px;word-spacing:0px;text-anchor:middle;white-space:pre;fill:#f8ff0b;fill-opacity:1;stroke-width:1.91897;paint-order:fill markers stroke"
       d="m -229.30408,78.675149 v 5.561461 q 0,0.651616 0.25761,0.916808 0.25762,0.265192 0.75012,0.265192 0.46977,0 0.91681,-0.280346 0.44703,-0.287923 0.72738,-0.727384 v -5.735731 h 2.00031 v 8.023961 h -1.74269 l -0.10608,-0.985 q -0.43189,0.591 -1.10623,0.901654 -0.67435,0.310654 -1.39415,0.310654 -1.15927,0 -1.73512,-0.651615 -0.56827,-0.659193 -0.56827,-1.795731 v -5.803923 z"
       id="path12" />
    <path
       style="font-weight:600;font-size:14.775px;line-height:160%;font-family:'Fira Code';-inkscape-font-specification:'Fira Code Semi-Bold';text-align:center;letter-spacing:-1.5875px;word-spacing:0px;text-anchor:middle;white-space:pre;fill:#f8ff0b;fill-opacity:1;stroke-width:1.91897;paint-order:fill markers stroke"
       d="m -235.99814,85.479226 q 0.45462,0 0.91681,-0.257616 0.46977,-0.257615 0.73496,-0.719807 v -1.560846 h -0.788 q -1.11381,0 -1.61388,0.356115 -0.4925,0.356115 -0.4925,1.007731 0,0.560692 0.31823,0.871346 0.31823,0.303077 0.92438,0.303077 z"
       id="path13" />
    <path
       style="font-weight:600;font-size:14.775px;line-height:160%;font-family:'Fira Code';-inkscape-font-specification:'Fira Code Semi-Bold';text-align:center;letter-spacing:-1.5875px;word-spacing:0px;text-anchor:middle;white-space:pre;fill:#f8ff0b;fill-opacity:1;stroke-width:1.91897;paint-order:fill markers stroke"
       d="m -232.40668,84.585149 q 0,0.462192 0.13639,0.674346 0.13638,0.204577 0.43946,0.310654 l -0.43188,1.341115 q -0.64404,-0.06819 -1.09866,-0.318231 -0.44704,-0.257615 -0.6895,-0.765269 -0.45461,0.553116 -1.15169,0.825885 -0.6895,0.272769 -1.44719,0.272769 -1.22746,0 -1.94727,-0.697077 -0.71981,-0.697077 -0.71981,-1.810884 0,-1.2805 1.00015,-1.97 1.00774,-0.697077 2.84893,-0.697077 h 1.12138 v -0.431885 q 0,-0.712231 -0.43946,-1.030461 -0.43946,-0.325808 -1.26535,-0.325808 -0.38642,0 -0.96984,0.106077 -0.57585,0.0985 -1.18958,0.310654 l -0.47734,-1.371423 q 0.76526,-0.287923 1.53811,-0.424308 0.78042,-0.136385 1.41689,-0.136385 1.68965,0 2.50796,0.719808 0.8183,0.712231 0.8183,2.023038 z"
       id="path14" />
  </g>
</svg>
