<?xml version="1.0" encoding="UTF-8" standalone="no"?>
<!-- Created with Inkscape (http://www.inkscape.org/) -->

<svg
   width="6.3499999mm"
   height="6.3499999mm"
   viewBox="0 0 6.3499998 6.3499998"
   version="1.1"
   id="svg8"
   xml:space="preserve"
   sodipodi:docname="icono_g.svg"
   inkscape:version="1.3.2 (1:1.3.2+202311252150+091e20ef0f)"
   xmlns:inkscape="http://www.inkscape.org/namespaces/inkscape"
   xmlns:sodipodi="http://sodipodi.sourceforge.net/DTD/sodipodi-0.dtd"
   xmlns="http://www.w3.org/2000/svg"
   xmlns:svg="http://www.w3.org/2000/svg"
   xmlns:rdf="http://www.w3.org/1999/02/22-rdf-syntax-ns#"
   xmlns:cc="http://creativecommons.org/ns#"
   xmlns:dc="http://purl.org/dc/elements/1.1/"><sodipodi:namedview
     id="namedview1"
     pagecolor="#ffffff"
     bordercolor="#666666"
     borderopacity="1.0"
     inkscape:showpageshadow="2"
     inkscape:pageopacity="0.0"
     inkscape:pagecheckerboard="0"
     inkscape:deskcolor="#d1d1d1"
     inkscape:document-units="mm"
     inkscape:current-layer="svg8" /><defs
     id="defs2" /><metadata
     id="metadata5"><rdf:RDF><cc:Work
         rdf:about=""><dc:format>image/svg+xml</dc:format><dc:type
           rdf:resource="http://purl.org/dc/dcmitype/StillImage" /><dc:title /></cc:Work></rdf:RDF></metadata><g
     id="g2"><path
       id="path1"
       style="fill:#000000;fill-opacity:1;stroke-width:4.43243;-inkscape-stroke:none;paint-order:fill markers stroke"
       d="M 3.175 1.7115234 A 1.4637275 1.4637275 0 0 0 1.7115234 3.175 A 1.4637275 1.4637275 0 0 0 3.175 4.6384766 A 1.4637275 1.4637275 0 0 0 4.6384766 3.175 A 1.4637275 1.4637275 0 0 0 3.175 1.7115234 z M 3.175 2.2949504 A 0.87985414 0.87985414 0 0 1 4.0550496 3.175 A 0.87985414 0.87985414 0 0 1 3.175 4.0550496 A 0.87985414 0.87985414 0 0 1 2.2949504 3.175 A 0.87985414 0.87985414 0 0 1 3.175 2.2949504 z " /><circle
       style="fill:#000000;fill-opacity:1;stroke-width:1.33214;-inkscape-stroke:none;paint-order:fill markers stroke"
       id="circle1"
       cx="3.175"
       cy="3.175"
       r="0.43991381" /></g></svg>
