<?xml version="1.0" encoding="UTF-8" standalone="no"?>
<!-- Created with Inkscape (http://www.inkscape.org/) -->

<svg
   width="264.58334mm"
   height="264.58334mm"
   viewBox="0 0 264.58334 264.58334"
   version="1.1"
   id="svg8"
   inkscape:version="1.3.2 (1:1.3.2+202311252150+091e20ef0f)"
   sodipodi:docname="share.svg"
   inkscape:export-filename="ganuritov_share.png"
   inkscape:export-xdpi="96"
   inkscape:export-ydpi="96"
   xml:space="preserve"
   xmlns:inkscape="http://www.inkscape.org/namespaces/inkscape"
   xmlns:sodipodi="http://sodipodi.sourceforge.net/DTD/sodipodi-0.dtd"
   xmlns:xlink="http://www.w3.org/1999/xlink"
   xmlns="http://www.w3.org/2000/svg"
   xmlns:svg="http://www.w3.org/2000/svg"
   xmlns:rdf="http://www.w3.org/1999/02/22-rdf-syntax-ns#"
   xmlns:cc="http://creativecommons.org/ns#"
   xmlns:dc="http://purl.org/dc/elements/1.1/"><defs
     id="defs2"><linearGradient
       id="linearGradient15"
       inkscape:collect="always"><stop
         style="stop-color:#e6008b;stop-opacity:1;"
         offset="0"
         id="stop15" /><stop
         style="stop-color:#a400e6;stop-opacity:1;"
         offset="1"
         id="stop16" /></linearGradient><radialGradient
       inkscape:collect="always"
       xlink:href="#linearGradient15"
       id="radialGradient16"
       cx="-97.932137"
       cy="143.48462"
       fx="-97.932137"
       fy="143.48462"
       r="132.29167"
       gradientUnits="userSpaceOnUse"
       gradientTransform="matrix(0,1.1814061,-1.4878859,3.3371508e-7,104.43086,311.29797)" /></defs><sodipodi:namedview
     id="base"
     pagecolor="#d2d2d2"
     bordercolor="#666666"
     borderopacity="1.0"
     inkscape:pageopacity="0"
     inkscape:pageshadow="2"
     inkscape:zoom="0.39375"
     inkscape:cx="-81.051971"
     inkscape:cy="558.86667"
     inkscape:document-units="mm"
     inkscape:current-layer="layer1"
     showgrid="false"
     inkscape:window-width="1366"
     inkscape:window-height="741"
     inkscape:window-x="0"
     inkscape:window-y="0"
     inkscape:window-maximized="1"
     inkscape:showpageshadow="2"
     inkscape:pagecheckerboard="0"
     inkscape:deskcolor="#d1d1d1"
     showguides="true" /><metadata
     id="metadata5"><rdf:RDF><cc:Work
         rdf:about=""><dc:format>image/svg+xml</dc:format><dc:type
           rdf:resource="http://purl.org/dc/dcmitype/StillImage" /><dc:title /></cc:Work></rdf:RDF></metadata><g
     inkscape:label="Capa 1"
     inkscape:groupmode="layer"
     id="layer1"
     transform="translate(241.20451,-65.525826)"><rect
       style="fill:url(#radialGradient16);fill-opacity:1;stroke-width:35.4232;-inkscape-stroke:none;paint-order:fill markers stroke"
       id="rect8"
       width="264.58334"
       height="264.58334"
       x="-241.20451"
       y="65.525826" /><path
       style="font-weight:bold;font-size:246.127px;line-height:160%;font-family:'Fira Code';-inkscape-font-specification:'Fira Code Bold';text-align:center;letter-spacing:27.3473px;word-spacing:0px;text-anchor:middle;white-space:pre;fill:#17ff29;stroke-width:4.43242;paint-order:fill markers stroke;fill-opacity:1"
       d="m -1.0641648,186.58729 -6.195421,18.58626 h -6.5104422 l -6.265426,-18.58626 h 5.967906 l 3.622746,14.35097 3.7802558,-14.35097 z"
       id="path15" /><path
       style="font-weight:bold;font-size:246.127px;line-height:160%;font-family:'Fira Code';-inkscape-font-specification:'Fira Code Bold';text-align:center;letter-spacing:27.3473px;word-spacing:0px;text-anchor:middle;white-space:pre;fill:#f8ff0b;stroke-width:1.91897;paint-order:fill markers stroke;font-variation-settings:normal;opacity:1;vector-effect:none;fill-opacity:1;stroke-linecap:butt;stroke-linejoin:miter;stroke-miterlimit:4;stroke-dasharray:none;stroke-dashoffset:0;stroke-opacity:1;-inkscape-stroke:none;stop-color:#000000;stop-opacity:1"
       d="m -35.343088,185.97474 q 2.870195,0 4.882831,1.22508 2.012638,1.22508 3.080209,3.44774 1.067573,2.20515 1.067573,5.18035 0,3.09771 -1.085074,5.33786 -1.067571,2.22265 -3.080209,3.41274 -2.012637,1.19007 -4.86533,1.19007 -2.835192,0 -4.865331,-1.17257 -2.012636,-1.17258 -3.097709,-3.39523 -1.067573,-2.22265 -1.067573,-5.33787 0,-2.9577 1.067573,-5.18035 1.085073,-2.22265 3.097709,-3.46524 2.030139,-1.24258 4.865331,-1.24258 z m 0,4.07778 q -1.697615,0 -2.520171,1.40009 -0.805055,1.3826 -0.805055,4.4103 0,3.08021 0.805055,4.46281 0.822556,1.38259 2.520171,1.38259 1.697616,0 2.50267,-1.38259 0.822556,-1.3826 0.822556,-4.49781 0,-3.01021 -0.822556,-4.3928 -0.805054,-1.38259 -2.50267,-1.38259 z"
       id="path8" /><path
       style="font-weight:bold;font-size:246.127px;line-height:160%;font-family:'Fira Code';-inkscape-font-specification:'Fira Code Bold';text-align:center;letter-spacing:27.3473px;word-spacing:0px;text-anchor:middle;white-space:pre;fill:#17ff29;stroke-width:4.43242;paint-order:fill markers stroke;fill-opacity:1"
       d="m -51.455793,204.08847 q -1.085075,0.70005 -2.62518,1.19008 -1.540104,0.49003 -3.465235,0.49003 -3.640247,0 -5.407867,-1.85512 -1.767621,-1.87263 -1.767621,-5.07534 v -8.43558 h -3.902765 v -3.81525 h 3.902765 v -4.02528 l 5.530377,-0.66505 v 4.69033 h 5.985407 l -0.542538,3.81525 h -5.442869 v 8.43558 q 0,1.38259 0.630042,1.97763 0.630044,0.59504 2.012636,0.59504 0.980068,0 1.785122,-0.22752 0.822556,-0.24501 1.4701,-0.61254 z"
       id="path7" /><path
       style="font-weight:bold;font-size:246.127px;line-height:160%;font-family:'Fira Code';-inkscape-font-specification:'Fira Code Bold';text-align:center;letter-spacing:27.3473px;word-spacing:0px;text-anchor:middle;white-space:pre;fill:#f8ff0b;stroke-width:1.91897;paint-order:fill markers stroke;font-variation-settings:normal;opacity:1;vector-effect:none;fill-opacity:1;stroke-linecap:butt;stroke-linejoin:miter;stroke-miterlimit:4;stroke-dasharray:none;stroke-dashoffset:0;stroke-opacity:1;-inkscape-stroke:none;stop-color:#000000;stop-opacity:1"
       d="m -84.964656,176.85662 q 1.435097,0 2.345159,0.89257 0.910062,0.89255 0.910062,2.22265 0,1.33008 -0.910062,2.24014 -0.910062,0.89256 -2.345159,0.89256 -1.452598,0 -2.380162,-0.89256 -0.910062,-0.91006 -0.910062,-2.24014 0,-1.3301 0.910062,-2.22265 0.927564,-0.89257 2.380162,-0.89257 z"
       id="path6" /><path
       style="font-weight:bold;font-size:246.127px;line-height:160%;font-family:'Fira Code';-inkscape-font-specification:'Fira Code Bold';text-align:center;letter-spacing:27.3473px;word-spacing:0px;text-anchor:middle;white-space:pre;fill:#f8ff0b;stroke-width:1.91897;paint-order:fill markers stroke;font-variation-settings:normal;opacity:1;vector-effect:none;fill-opacity:1;stroke-linecap:butt;stroke-linejoin:miter;stroke-miterlimit:4;stroke-dasharray:none;stroke-dashoffset:0;stroke-opacity:1;-inkscape-stroke:none;stop-color:#000000;stop-opacity:1"
       d="m -81.621929,186.58729 v 14.806 h 4.72532 v 3.78026 h -15.523553 v -3.78026 h 5.267858 v -11.02575 h -5.092846 v -3.78025 z"
       id="path5" /><path
       style="font-weight:bold;font-size:246.127px;line-height:160%;font-family:'Fira Code';-inkscape-font-specification:'Fira Code Bold';text-align:center;letter-spacing:27.3473px;word-spacing:0px;text-anchor:middle;white-space:pre;fill:#17ff29;stroke-width:4.43242;paint-order:fill markers stroke;fill-opacity:1"
       d="m -117.59847,205.17355 v -3.71026 h 2.45017 v -11.20076 h -2.45017 v -3.67524 h 6.66795 l 1.01507,4.18278 q 0.99758,-2.39767 2.53768,-3.57025 1.55761,-1.17257 3.79775,-1.17257 0.94507,0 1.68012,0.15751 0.73505,0.14 1.38259,0.40253 l -1.68011,4.5678 q -0.50754,-0.14001 -1.01507,-0.21001 -0.50754,-0.07 -1.12007,-0.07 -1.82013,0 -3.20272,1.4876 -1.3651,1.4876 -2.08264,3.78026 v 5.32036 h 3.67524 v 3.71025 z m 12.58336,-10.81574 v -5.42537 l 0.82256,-2.34515 h 3.67524 l -1.03257,7.77052 z"
       id="path4" /><path
       style="font-weight:bold;font-size:246.127px;line-height:160%;font-family:'Fira Code';-inkscape-font-specification:'Fira Code Bold';text-align:center;letter-spacing:27.3473px;word-spacing:0px;text-anchor:middle;white-space:pre;fill:#f8ff0b;stroke-width:1.91897;paint-order:fill markers stroke;font-variation-settings:normal;opacity:1;vector-effect:none;fill-opacity:1;stroke-linecap:butt;stroke-linejoin:miter;stroke-miterlimit:4;stroke-dasharray:none;stroke-dashoffset:0;stroke-opacity:1;-inkscape-stroke:none;stop-color:#000000;stop-opacity:1"
       d="m -137.03639,186.58729 v 12.72336 q 0,1.34759 0.49003,1.85512 0.50753,0.50754 1.4001,0.50754 0.85755,0 1.71512,-0.54254 0.85755,-0.54254 1.43509,-1.4701 v -13.07338 h 5.53037 v 18.58626 h -4.83032 l -0.24501,-2.17015 q -0.94507,1.36509 -2.48517,2.06513 -1.54011,0.70005 -3.22023,0.70005 -2.69518,0 -4.00776,-1.5576 -1.3126,-1.5751 -1.3126,-4.21778 v -13.40591 z"
       id="path3" /><path
       style="font-weight:bold;font-size:246.127px;line-height:160%;font-family:'Fira Code';-inkscape-font-specification:'Fira Code Bold';text-align:center;letter-spacing:27.3473px;word-spacing:0px;text-anchor:middle;white-space:pre;fill:#17ff29;stroke-width:4.43242;paint-order:fill markers stroke;fill-opacity:1"
       d="m -167.36004,205.17355 v -18.58626 h 4.83033 l 0.38502,2.15264 q 1.24259,-1.4001 2.62519,-2.08265 1.38259,-0.68254 3.15021,-0.68254 2.38015,0 3.74525,1.4526 1.36509,1.4526 1.36509,4.09527 v 13.65094 h -5.53037 v -12.05832 q 0,-1.13758 -0.15752,-1.80263 -0.1575,-0.68254 -0.56003,-0.96256 -0.38503,-0.29752 -1.06757,-0.29752 -0.57754,0 -1.13759,0.26251 -0.54253,0.24503 -1.06757,0.71756 -0.52503,0.47253 -1.05006,1.13757 v 13.00339 z"
       id="path2" /><path
       style="font-weight:bold;font-size:246.127px;line-height:160%;font-family:'Fira Code';-inkscape-font-specification:'Fira Code Bold';text-align:center;letter-spacing:27.3473px;word-spacing:0px;text-anchor:middle;white-space:pre;fill:#f8ff0b;stroke-width:1.91897;paint-order:fill markers stroke;font-variation-settings:normal;opacity:1;vector-effect:none;fill-opacity:1;stroke-linecap:butt;stroke-linejoin:miter;stroke-miterlimit:4;stroke-dasharray:none;stroke-dashoffset:0;stroke-opacity:1;-inkscape-stroke:none;stop-color:#000000;stop-opacity:1"
       d="m -176.50726,199.81818 q 0,1.05007 0.28002,1.52261 0.29752,0.47253 0.94507,0.71754 l -1.13758,3.64025 q -1.64511,-0.15751 -2.78269,-0.71755 -1.12008,-0.57754 -1.76762,-1.73261 -1.06757,1.27759 -2.73019,1.90762 -1.66261,0.61254 -3.39523,0.61254 -2.8702,0 -4.58531,-1.62761 -1.69761,-1.6451 -1.69761,-4.21778 0,-3.0277 2.36266,-4.67282 2.38016,-1.64511 6.68545,-1.64511 h 2.50267 v -0.70005 q 0,-1.4526 -0.94506,-2.15264 -0.92757,-0.70005 -2.73019,-0.70005 -0.89256,0 -2.29266,0.26251 -1.40009,0.24503 -2.80018,0.71756 l -1.27759,-3.67526 q 1.80262,-0.68254 3.74525,-1.03257 1.96013,-0.35002 3.50024,-0.35002 4.14778,0 6.12541,1.69761 1.99514,1.68012 1.99514,4.86533 z m -8.68059,1.99514 q 0.89256,0 1.87263,-0.52503 0.98006,-0.54254 1.4876,-1.52261 v -3.0102 h -1.36509 q -2.31016,0 -3.39524,0.71754 -1.08507,0.70005 -1.08507,2.06515 0,1.06757 0.64755,1.68011 0.66504,0.59504 1.83762,0.59504 z"
       id="path1" /><path
       style="font-weight:bold;font-size:246.127px;line-height:160%;font-family:'Fira Code';-inkscape-font-specification:'Fira Code Bold';text-align:center;letter-spacing:27.3473px;word-spacing:0px;text-anchor:middle;white-space:pre;fill:#17ff29;stroke-width:4.43242;paint-order:fill markers stroke;fill-opacity:1"
       d="m -200.44298,183.61208 1.29509,4.06027 q -0.98007,0.38503 -2.29266,0.56004 -1.31259,0.17502 -3.06271,0.17502 1.75012,0.75254 2.66019,1.87263 0.92756,1.10257 0.92756,2.90519 0,1.80262 -0.96257,3.22022 -0.96256,1.40009 -2.73018,2.20515 -1.76762,0.80505 -4.18279,0.80505 -0.59504,0 -1.12008,-0.0525 -0.52503,-0.0525 -1.03256,-0.15751 -0.29753,0.15751 -0.45503,0.45504 -0.15751,0.29751 -0.15751,0.61254 0,0.43753 0.35002,0.78755 0.36752,0.35003 1.69762,0.35003 h 3.0452 q 2.17015,0 3.74526,0.70004 1.5926,0.70005 2.46766,1.90763 0.87506,1.20758 0.87506,2.76519 0,2.8527 -2.50267,4.4978 -2.50266,1.64512 -7.438,1.64512 -3.57025,0 -5.53038,-0.73505 -1.94264,-0.71755 -2.71268,-2.06514 -0.75256,-1.3301 -0.75256,-3.16772 h 4.90033 q 0,0.80506 0.31503,1.31259 0.33252,0.52503 1.24258,0.77006 0.92757,0.24501 2.67769,0.24501 1.76761,0 2.69518,-0.28002 0.92756,-0.28002 1.26009,-0.77005 0.35002,-0.47253 0.35002,-1.06758 0,-0.82255 -0.64755,-1.33009 -0.64754,-0.50753 -2.04763,-0.50753 h -2.9577 q -3.01021,0 -4.37531,-1.10257 -1.36508,-1.12008 -1.36508,-2.60768 0,-1.03257 0.54253,-1.96013 0.56004,-0.92756 1.55761,-1.55761 -1.78512,-0.94506 -2.55518,-2.22265 -0.77005,-1.29509 -0.77005,-3.09771 0,-2.10014 1.06757,-3.60525 1.06757,-1.5226 2.9402,-2.34515 1.89013,-0.82256 4.3053,-0.82256 2.08264,0.035 3.62274,-0.28002 1.54011,-0.33252 2.76519,-0.89256 1.22509,-0.57754 2.34516,-1.22508 z m -8.59309,5.98541 q -1.31258,0 -2.08264,0.84005 -0.77005,0.82256 -0.77005,2.27516 0,1.5401 0.78755,2.36266 0.78755,0.82255 2.06514,0.82255 1.3826,0 2.10014,-0.82255 0.73505,-0.82256 0.73505,-2.43266 0,-1.55761 -0.71754,-2.29266 -0.71755,-0.75255 -2.11765,-0.75255 z"
       id="text8" /></g></svg>
